<svg xmlns="http://www.w3.org/2000/svg" viewBox="0 0 200 200" width="200" height="200">
    <!-- Background circle (optional/subtle) -->
    <circle cx="100.0" cy="100.0" r="90" fill="#e8eaf6" opacity="0.5" />
    
    <!-- Edges -->
    <g stroke="#3949ab" stroke-width="2" opacity="0.7"><line x1="150.3" y1="160.2" x2="135.0" y2="149.1" /><line x1="150.3" y1="160.2" x2="157.4" y2="139.4" /><line x1="116.7" y1="52.5" x2="129.4" y2="79.8" /><line x1="116.7" y1="52.5" x2="130.8" y2="67.5" /><line x1="116.7" y1="52.5" x2="83.5" y2="51.2" /><line x1="116.7" y1="52.5" x2="94.3" y2="25.0" /><line x1="116.7" y1="52.5" x2="101.6" y2="43.7" /><line x1="116.7" y1="52.5" x2="95.6" y2="61.8" /><line x1="116.7" y1="52.5" x2="95.1" y2="84.7" /><line x1="116.7" y1="52.5" x2="97.2" y2="32.3" /><line x1="116.7" y1="52.5" x2="131.9" y2="46.4" /><line x1="116.7" y1="52.5" x2="120.3" y2="31.1" /><line x1="79.4" y1="169.8" x2="81.9" y2="141.3" /><line x1="79.4" y1="169.8" x2="62.3" y2="155.1" /><line x1="79.4" y1="169.8" x2="99.5" y2="129.6" /><line x1="129.4" y1="79.8" x2="130.8" y2="67.5" /><line x1="129.4" y1="79.8" x2="150.7" y2="105.1" /><line x1="129.4" y1="79.8" x2="101.6" y2="43.7" /><line x1="129.4" y1="79.8" x2="95.6" y2="61.8" /><line x1="129.4" y1="79.8" x2="174.6" y2="94.9" /><line x1="129.4" y1="79.8" x2="95.1" y2="84.7" /><line x1="129.4" y1="79.8" x2="131.9" y2="46.4" /><line x1="129.4" y1="79.8" x2="120.3" y2="31.1" /><line x1="81.9" y1="141.3" x2="41.7" y2="131.9" /><line x1="81.9" y1="141.3" x2="61.2" y2="120.6" /><line x1="81.9" y1="141.3" x2="62.3" y2="155.1" /><line x1="81.9" y1="141.3" x2="99.5" y2="129.6" /><line x1="68.0" y1="77.0" x2="83.5" y2="51.2" /><line x1="68.0" y1="77.0" x2="101.6" y2="43.7" /><line x1="68.0" y1="77.0" x2="61.2" y2="120.6" /><line x1="68.0" y1="77.0" x2="95.6" y2="61.8" /><line x1="68.0" y1="77.0" x2="95.1" y2="84.7" /><line x1="68.0" y1="77.0" x2="70.0" y2="89.6" /><line x1="68.0" y1="77.0" x2="39.8" y2="107.3" /><line x1="130.8" y1="67.5" x2="150.7" y2="105.1" /><line x1="130.8" y1="67.5" x2="101.6" y2="43.7" /><line x1="130.8" y1="67.5" x2="95.6" y2="61.8" /><line x1="130.8" y1="67.5" x2="95.1" y2="84.7" /><line x1="130.8" y1="67.5" x2="97.2" y2="32.3" /><line x1="130.8" y1="67.5" x2="131.9" y2="46.4" /><line x1="130.8" y1="67.5" x2="120.3" y2="31.1" /><line x1="83.5" y1="51.2" x2="94.3" y2="25.0" /><line x1="83.5" y1="51.2" x2="101.6" y2="43.7" /><line x1="83.5" y1="51.2" x2="95.6" y2="61.8" /><line x1="83.5" y1="51.2" x2="95.1" y2="84.7" /><line x1="83.5" y1="51.2" x2="97.2" y2="32.3" /><line x1="83.5" y1="51.2" x2="70.0" y2="89.6" /><line x1="83.5" y1="51.2" x2="131.9" y2="46.4" /><line x1="83.5" y1="51.2" x2="120.3" y2="31.1" /><line x1="41.7" y1="131.9" x2="61.2" y2="120.6" /><line x1="41.7" y1="131.9" x2="62.3" y2="155.1" /><line x1="41.7" y1="131.9" x2="39.8" y2="107.3" /><line x1="135.0" y1="149.1" x2="150.7" y2="105.1" /><line x1="135.0" y1="149.1" x2="157.4" y2="139.4" /><line x1="135.0" y1="149.1" x2="99.5" y2="129.6" /><line x1="150.7" y1="105.1" x2="157.4" y2="139.4" /><line x1="150.7" y1="105.1" x2="174.6" y2="94.9" /><line x1="157.4" y1="139.4" x2="174.6" y2="94.9" /><line x1="94.3" y1="25.0" x2="101.6" y2="43.7" /><line x1="94.3" y1="25.0" x2="95.6" y2="61.8" /><line x1="94.3" y1="25.0" x2="97.2" y2="32.3" /><line x1="94.3" y1="25.0" x2="131.9" y2="46.4" /><line x1="94.3" y1="25.0" x2="120.3" y2="31.1" /><line x1="101.6" y1="43.7" x2="95.6" y2="61.8" /><line x1="101.6" y1="43.7" x2="95.1" y2="84.7" /><line x1="101.6" y1="43.7" x2="97.2" y2="32.3" /><line x1="101.6" y1="43.7" x2="131.9" y2="46.4" /><line x1="101.6" y1="43.7" x2="120.3" y2="31.1" /><line x1="61.2" y1="120.6" x2="95.1" y2="84.7" /><line x1="61.2" y1="120.6" x2="70.0" y2="89.6" /><line x1="61.2" y1="120.6" x2="62.3" y2="155.1" /><line x1="61.2" y1="120.6" x2="99.5" y2="129.6" /><line x1="61.2" y1="120.6" x2="39.8" y2="107.3" /><line x1="95.6" y1="61.8" x2="95.1" y2="84.7" /><line x1="95.6" y1="61.8" x2="97.2" y2="32.3" /><line x1="95.6" y1="61.8" x2="70.0" y2="89.6" /><line x1="95.6" y1="61.8" x2="131.9" y2="46.4" /><line x1="95.6" y1="61.8" x2="120.3" y2="31.1" /><line x1="95.1" y1="84.7" x2="70.0" y2="89.6" /><line x1="95.1" y1="84.7" x2="99.5" y2="129.6" /><line x1="97.2" y1="32.3" x2="131.9" y2="46.4" /><line x1="97.2" y1="32.3" x2="120.3" y2="31.1" /><line x1="70.0" y1="89.6" x2="99.5" y2="129.6" /><line x1="70.0" y1="89.6" x2="39.8" y2="107.3" /><line x1="62.3" y1="155.1" x2="99.5" y2="129.6" /><line x1="131.9" y1="46.4" x2="120.3" y2="31.1" />
    </g>
    
    <!-- Nodes -->
    <g fill="{color_nodes}"><circle cx="150.3" cy="160.2" r="4.1" fill="#1a237e" /><circle cx="116.7" cy="52.5" r="4.2" fill="#1a237e" /><circle cx="79.4" cy="169.8" r="3.8" fill="#1a237e" /><circle cx="129.4" cy="79.8" r="3.7" fill="#1a237e" /><circle cx="81.9" cy="141.3" r="4.4" fill="#1a237e" /><circle cx="68.0" cy="77.0" r="3.3" fill="#1a237e" /><circle cx="130.8" cy="67.5" r="3.8" fill="#1a237e" /><circle cx="83.5" cy="51.2" r="4.5" fill="#1a237e" /><circle cx="41.7" cy="131.9" r="3.3" fill="#1a237e" /><circle cx="135.0" cy="149.1" r="4.9" fill="#1a237e" /><circle cx="150.7" cy="105.1" r="3.9" fill="#1a237e" /><circle cx="157.4" cy="139.4" r="4.8" fill="#1a237e" /><circle cx="94.3" cy="25.0" r="3.6" fill="#ff6d00" /><circle cx="101.6" cy="43.7" r="4.8" fill="#1a237e" /><circle cx="61.2" cy="120.6" r="4.0" fill="#1a237e" /><circle cx="95.6" cy="61.8" r="3.8" fill="#1a237e" /><circle cx="174.6" cy="94.9" r="4.9" fill="#1a237e" /><circle cx="95.1" cy="84.7" r="4.5" fill="#1a237e" /><circle cx="97.2" cy="32.3" r="4.7" fill="#1a237e" /><circle cx="70.0" cy="89.6" r="3.1" fill="#1a237e" /><circle cx="62.3" cy="155.1" r="3.8" fill="#ff6d00" /><circle cx="131.9" cy="46.4" r="3.3" fill="#ff6d00" /><circle cx="120.3" cy="31.1" r="4.2" fill="#1a237e" /><circle cx="99.5" cy="129.6" r="4.4" fill="#1a237e" /><circle cx="39.8" cy="107.3" r="4.1" fill="#1a237e" />
    </g>
</svg>